HIERARCHY
ROOT joint_Root
{
	OFFSET 0.0 0.0 0.0
	CHANNELS 6 Xposition Yposition Zposition Zrotation Xrotation Yrotation 
	JOINT Hips
	{
		OFFSET -17.1583 93.1646 452.98
		CHANNELS 6 Xposition Yposition Zposition Zrotation Xrotation Yrotation 
		JOINT Spine
		{
			OFFSET 15.7357 0.0 0.0
			CHANNELS 6 Xposition Yposition Zposition Zrotation Xrotation Yrotation 
			JOINT Chest
			{
				OFFSET 8.98455 -0.406207 0.0
				CHANNELS 6 Xposition Yposition Zposition Zrotation Xrotation Yrotation 
				JOINT Neck
				{
					OFFSET 16.3773 0.0 0.0
					CHANNELS 6 Xposition Yposition Zposition Zrotation Xrotation Yrotation 
					JOINT Head
					{
						OFFSET 6.45672 0.0 0.0
						CHANNELS 6 Xposition Yposition Zposition Zrotation Xrotation Yrotation 
						End Site
						{
							OFFSET 0.0 0.0 0.0
						}
					}
				}
				JOINT Shoulder_L
				{
					OFFSET 12.9942 -0.242716 4.98039
					CHANNELS 6 Xposition Yposition Zposition Zrotation Xrotation Yrotation 
					JOINT UpperArm_L
					{
						OFFSET 5.34809 0.0 0.0
						CHANNELS 6 Xposition Yposition Zposition Zrotation Xrotation Yrotation 
						JOINT LowerArm_L
						{
							OFFSET 24.3286 1.87007e-05 0.0
							CHANNELS 6 Xposition Yposition Zposition Zrotation Xrotation Yrotation 
							JOINT Hand_L
							{
								OFFSET 22.2916 0.0 0.0
								CHANNELS 6 Xposition Yposition Zposition Zrotation Xrotation Yrotation 
								End Site
								{
									OFFSET 0.0 0.0 0.0
								}
							}
						}
					}
				}
				JOINT Shoulder_R
				{
					OFFSET 12.9945 -0.242716 -4.98039
					CHANNELS 6 Xposition Yposition Zposition Zrotation Xrotation Yrotation 
					JOINT UpperArm_R
					{
						OFFSET -5.34813 0.0 0.0
						CHANNELS 6 Xposition Yposition Zposition Zrotation Xrotation Yrotation 
						JOINT LowerArm_R
						{
							OFFSET -24.3289 0.000322201 0.0
							CHANNELS 6 Xposition Yposition Zposition Zrotation Xrotation Yrotation 
							JOINT Hand_R
							{
								OFFSET -22.2915 -0.000108084 0.0
								CHANNELS 6 Xposition Yposition Zposition Zrotation Xrotation Yrotation 
								End Site
								{
									OFFSET 0.0 0.0 0.0
								}
							}
						}
					}
				}
			}
		}
		JOINT UpperLeg_L
		{
			OFFSET -2.19248 -6.46944 0.0
			CHANNELS 6 Xposition Yposition Zposition Zrotation Xrotation Yrotation 
			JOINT LowerLeg_L
			{
				OFFSET 39.0811 0.0 -1.23785e-05
				CHANNELS 6 Xposition Yposition Zposition Zrotation Xrotation Yrotation 
				JOINT Foot_L
				{
					OFFSET 40.9854 0.0 -1.26872e-05
					CHANNELS 6 Xposition Yposition Zposition Zrotation Xrotation Yrotation 
					JOINT Toes_L
					{
						OFFSET 11.7543 0.0 0.0
						CHANNELS 6 Xposition Yposition Zposition Zrotation Xrotation Yrotation 
						End Site
						{
							OFFSET 0.0 0.0 0.0
						}
					}
				}
			}
		}
		JOINT UpperLeg_R
		{
			OFFSET -2.19251 6.46944 0.0
			CHANNELS 6 Xposition Yposition Zposition Zrotation Xrotation Yrotation 
			JOINT LowerLeg_R
			{
				OFFSET -39.0811 -0.00228153 -0.0401928
				CHANNELS 6 Xposition Yposition Zposition Zrotation Xrotation Yrotation 
				JOINT Foot_R
				{
					OFFSET -40.9854 0.0 0.0
					CHANNELS 6 Xposition Yposition Zposition Zrotation Xrotation Yrotation 
					JOINT Toes_R
					{
						OFFSET -11.7543 0.0 0.0
						CHANNELS 6 Xposition Yposition Zposition Zrotation Xrotation Yrotation 
						End Site
						{
							OFFSET 0.0 0.0 0.0
						}
					}
				}
			}
		}
	}
}
MOTION
Frames:	8
Frame Time:	0.0333333
0.000000 0.000000 0.000000 0.000000 0.000000 -0.000000 191.548000 91.335400 -167.640000 86.733800 5.387850 2.017020 15.735700 0.000005 -0.000001 115.490000 86.668900 -114.140000 8.984550 -0.406207 -0.000000 -1.783900 2.753970 2.742570 16.377300 -0.000001 -0.000001 3.193620 -1.974080 3.162220 6.456720 -0.000001 -0.000000 14.279800 -1.325040 7.322190 12.994200 -0.242716 4.980390 -92.762800 7.394390 -69.445300 5.348090 -0.000007 -0.000001 -65.301800 -8.568210 10.408100 24.328600 0.000019 0.000005 4.145110 29.427100 -8.393370 22.291600 -0.000001 0.000005 -9.791220 5.041860 6.419060 12.994500 -0.242716 -4.980390 88.960900 3.287540 -72.450800 -5.348130 -0.000001 -0.000004 -67.718300 22.547800 -15.655900 -24.328900 0.000322 -0.000009 1.673490 3.328680 -26.737300 -22.291500 -0.000108 -0.000004 4.147790 5.291930 0.299288 -2.192480 -6.469440 -0.000000 -172.429000 0.631371 -18.420900 39.081100 -0.000007 -0.000012 0.211948 -0.108444 62.902200 40.985400 -0.000006 -0.000013 -10.725600 9.241860 -51.071500 11.754300 -0.000000 0.000003 0.001748 0.038099 -15.031300 -2.192510 6.469440 -0.000001 -173.661000 2.174200 178.767000 -39.081100 -0.002282 -0.040193 -0.013414 0.030119 29.033900 -40.985400 0.000008 0.000006 -4.312230 -3.462560 -76.969500 -11.754300 -0.000006 -0.000006 -0.001054 0.183844 -9.115640
0.000000 0.000000 0.000000 0.000000 0.000000 -0.000000 192.007000 92.375900 -165.200000 88.026900 4.187490 1.203920 15.735700 0.000005 -0.000001 128.156000 86.232800 -127.488000 8.984550 -0.406207 -0.000000 -1.869920 4.597460 1.412980 16.377300 -0.000001 -0.000001 3.020170 -2.040200 3.090470 6.456720 -0.000001 -0.000000 13.918200 -2.236780 7.963300 12.994200 -0.242716 4.980390 -92.737400 6.931390 -68.386600 5.348090 -0.000007 -0.000001 -61.181200 -11.644100 12.945600 24.328600 0.000019 0.000005 3.760770 22.083700 -9.921090 22.291600 -0.000001 0.000005 -6.911880 5.030930 6.647500 12.994500 -0.242716 -4.980390 89.184100 2.715040 -73.267800 -5.348130 -0.000001 -0.000004 -66.205000 23.502800 -18.095400 -24.328900 0.000322 -0.000009 1.368710 2.140380 -32.643700 -22.291500 -0.000108 -0.000004 4.812040 5.326610 -0.686790 -2.192480 -6.469440 -0.000000 -174.257000 1.104230 -21.697900 39.081100 -0.000007 -0.000012 0.154098 -0.102615 56.339100 40.985400 -0.000006 -0.000013 -10.624200 9.782820 -56.121800 11.754300 -0.000000 0.000003 0.001863 0.041819 -14.880400 -2.192510 6.469440 -0.000001 -175.433000 2.139250 -178.050000 -39.081100 -0.002282 -0.040193 -0.010384 0.030545 24.153200 -40.985400 0.000008 0.000006 -4.043330 -2.654420 -73.522400 -11.754300 -0.000006 -0.000006 0.000544 0.157955 -10.167200
0.000000 0.000000 0.000000 0.000000 0.000000 -0.000000 192.412000 93.069400 -162.848000 88.911100 3.625980 -0.002318 15.735700 0.000005 -0.000001 136.297000 85.950400 -136.083000 8.984550 -0.406207 -0.000000 -2.185240 5.834850 0.539253 16.377300 -0.000001 -0.000001 2.549660 -2.148580 2.568200 6.456720 -0.000001 -0.000000 13.576200 -3.022540 7.968750 12.994200 -0.242716 4.980390 -92.654500 6.498440 -67.723700 5.348090 -0.000007 -0.000001 -57.315400 -15.132900 14.852800 24.328600 0.000019 0.000005 3.144520 16.575800 -10.901100 22.291600 -0.000001 0.000005 -3.463060 4.998040 7.354610 12.994500 -0.242716 -4.980390 89.347900 2.253060 -73.854400 -5.348130 -0.000001 -0.000004 -64.530100 23.308900 -20.447500 -24.328900 0.000322 -0.000009 1.074090 1.358850 -38.371200 -22.291500 -0.000108 -0.000004 4.736470 5.329900 -0.782922 -2.192480 -6.469440 -0.000000 -175.234000 2.057200 -24.251300 39.081100 -0.000007 -0.000012 0.095905 -0.090614 46.624000 40.985400 -0.000006 -0.000013 -9.322750 9.707210 -58.393400 11.754300 -0.000000 0.000003 0.001834 0.040844 -14.920000 -2.192510 6.469440 -0.000001 -177.318000 4.826430 -175.411000 -39.081100 -0.002282 -0.040193 -0.008682 0.034129 19.378900 -40.985400 0.000008 0.000006 -3.606260 0.184593 -70.194800 -11.754300 -0.000006 -0.000006 0.001740 0.129822 -11.308700
0.000000 0.000000 0.000000 0.000000 0.000000 -0.000000 192.777000 93.335100 -160.474000 89.424100 3.267620 -1.417190 15.735700 0.000005 -0.000001 142.179000 85.838000 -142.216000 8.984550 -0.406207 -0.000000 -2.667120 6.576420 0.078763 16.377300 -0.000001 -0.000001 1.950470 -1.920720 1.797590 6.456720 -0.000001 -0.000000 13.053100 -3.665710 7.397370 12.994200 -0.242716 4.980390 -92.547400 6.091080 -67.252300 5.348090 -0.000007 -0.000001 -54.018300 -17.919200 16.442600 24.328600 0.000019 0.000005 2.830700 13.792800 -11.716800 22.291600 -0.000001 0.000005 1.112970 4.952590 8.298900 12.994500 -0.242716 -4.980390 89.460500 1.935970 -74.424700 -5.348130 -0.000001 -0.000004 -63.110500 22.168700 -22.443400 -24.328900 0.000322 -0.000009 0.708498 0.739250 -43.846900 -22.291500 -0.000108 -0.000004 4.263130 5.337040 -0.991903 -2.192480 -6.469440 -0.000000 -175.521000 2.575600 -25.673500 39.081100 -0.000007 -0.000012 0.057700 -0.084736 34.252000 40.985400 -0.000006 -0.000013 -8.072930 9.714070 -58.570700 11.754300 -0.000000 0.000003 0.001931 0.044172 -14.785000 -2.192510 6.469440 -0.000001 -179.020000 8.229430 -173.213000 -39.081100 -0.002282 -0.040193 -0.007277 0.038790 15.293600 -40.985400 0.000008 0.000006 -3.370070 3.919390 -67.592600 -11.754300 -0.000006 -0.000006 0.002416 0.098121 -12.594100
0.000000 0.000000 0.000000 0.000000 0.000000 -0.000000 193.136000 92.988800 -157.855000 89.474200 2.646740 -2.632650 15.735700 0.000005 -0.000001 147.639000 85.683700 -147.722000 8.984550 -0.406207 -0.000000 -3.152060 7.296430 0.036421 16.377300 -0.000001 -0.000001 1.173440 -1.654160 0.980536 6.456720 -0.000001 -0.000000 12.534800 -3.984110 6.480680 12.994200 -0.242716 4.980390 -92.430500 5.792510 -67.190000 5.348090 -0.000007 -0.000001 -51.197800 -19.875000 17.720000 24.328600 0.000019 0.000005 2.660820 12.786900 -11.858300 22.291600 -0.000001 0.000005 6.655870 4.886510 9.627630 12.994500 -0.242716 -4.980390 89.512700 1.796990 -74.826600 -5.348130 -0.000001 -0.000004 -62.210500 20.640000 -23.615400 -24.328900 0.000322 -0.000009 0.385655 0.332045 -49.399600 -22.291500 -0.000108 -0.000004 4.452660 5.333380 -0.883900 -2.192480 -6.469440 -0.000000 -175.224000 2.253950 -25.863900 39.081100 -0.000007 -0.000012 0.032969 -0.084413 21.334100 40.985400 -0.000006 -0.000013 -7.668900 11.237100 -58.969100 11.754300 -0.000000 0.000003 0.002004 0.046872 -14.675500 -2.192510 6.469440 -0.000001 179.982000 9.639370 -171.776000 -39.081100 -0.002282 -0.040193 -0.009393 0.052880 13.530900 -40.985400 0.000008 0.000006 -3.848570 6.398640 -66.783900 -11.754300 -0.000006 -0.000006 0.002430 0.071004 -13.693400
0.000000 0.000000 0.000000 0.000000 0.000000 -0.000000 193.493000 92.095600 -154.881000 89.232000 1.826290 -3.140940 15.735700 0.000005 -0.000001 149.378000 85.437700 -149.391000 8.984550 -0.406207 -0.000000 -3.130880 7.849940 0.189015 16.377300 -0.000001 -0.000001 0.162876 -1.162570 0.197192 6.456720 -0.000001 -0.000000 11.893600 -3.947600 5.604370 12.994200 -0.242716 4.980390 -92.424300 5.829940 -67.373800 5.348090 -0.000007 -0.000001 -48.619700 -21.488800 18.486400 24.328600 0.000019 0.000005 2.400890 12.345600 -11.094400 22.291600 -0.000001 0.000005 11.586000 4.798450 11.332900 12.994500 -0.242716 -4.980390 89.462900 2.053110 -75.334800 -5.348130 -0.000001 -0.000004 -62.150000 18.605900 -23.819000 -24.328900 0.000322 -0.000009 -0.084273 -0.057503 -55.013500 -22.291500 -0.000108 -0.000004 5.283350 5.345100 -1.229990 -2.192480 -6.469440 -0.000000 -174.667000 1.772400 -25.987300 39.081100 -0.000007 -0.000012 0.018100 -0.081677 12.495400 40.985400 -0.000006 -0.000013 -8.187750 12.148200 -60.080400 11.754300 -0.000000 0.000003 0.001940 0.044494 -14.771900 -2.192510 6.469440 -0.000001 179.659000 8.860070 -171.066000 -39.081100 -0.002282 -0.040193 -0.018116 0.079594 15.079900 -40.985400 0.000008 0.000006 -4.177060 6.910150 -67.985200 -11.754300 -0.000006 -0.000006 0.001648 0.035100 -15.149300
0.000000 0.000000 0.000000 0.000000 0.000000 -0.000000 193.960000 91.017300 -151.454000 88.958400 0.881738 -3.341610 15.735700 0.000005 -0.000001 149.215000 85.253400 -149.152000 8.984550 -0.406207 -0.000000 -2.924850 8.146440 0.333660 16.377300 -0.000001 -0.000001 -0.761466 -0.586239 -0.371322 6.456720 -0.000001 -0.000000 11.079500 -3.524070 4.954700 12.994200 -0.242716 4.980390 -92.651100 6.478090 -67.686600 5.348090 -0.000007 -0.000001 -46.144300 -22.480700 18.879000 24.328600 0.000019 0.000005 1.900470 11.306800 -9.604440 22.291600 -0.000001 0.000005 15.162800 4.705900 13.043400 12.994500 -0.242716 -4.980390 89.287200 2.827350 -75.843400 -5.348130 -0.000001 -0.000004 -62.776000 16.745900 -23.000700 -24.328900 0.000322 -0.000009 -1.056460 -0.607640 -60.038800 -22.291500 -0.000108 -0.000004 6.910360 5.374850 -2.129260 -2.192480 -6.469440 -0.000000 -174.707000 0.598795 -27.026700 39.081100 -0.000007 -0.000012 0.010450 -0.059378 9.981880 40.985400 -0.000006 -0.000013 -7.207700 12.587500 -61.795100 11.754300 -0.000000 0.000003 0.001901 0.043106 -14.828200 -2.192510 6.469440 -0.000001 179.260000 8.043920 -170.384000 -39.081100 -0.002282 -0.040193 -0.028474 0.099170 17.778800 -40.985400 0.000008 0.000006 -4.264990 7.126510 -69.336800 -11.754300 -0.000006 -0.000006 -0.001635 -0.024056 -17.551300
0.000000 0.000000 0.000000 0.000000 0.000000 -0.000000 194.649000 89.983100 -147.428000 89.291800 0.298499 -4.074730 15.735700 0.000005 -0.000001 150.066000 85.525000 -150.134000 8.984550 -0.406207 -0.000000 -3.309740 7.758890 0.088643 16.377300 -0.000001 -0.000001 -1.321560 0.018939 -0.622530 6.456720 -0.000001 -0.000000 10.481100 -2.735010 4.473920 12.994200 -0.242716 4.980390 -92.942800 7.282890 -67.926400 5.348090 -0.000007 -0.000001 -44.347900 -22.880600 19.179300 24.328600 0.000019 0.000005 1.357330 10.139900 -7.663460 22.291600 -0.000001 0.000005 17.456300 4.632380 14.351000 12.994500 -0.242716 -4.980390 89.141600 3.474110 -76.111600 -5.348130 -0.000001 -0.000004 -64.761500 15.623500 -20.880100 -24.328900 0.000322 -0.000009 -2.774940 -1.414930 -62.987200 -22.291500 -0.000108 -0.000004 8.451110 5.446800 -4.512720 -2.192480 -6.469440 -0.000000 -175.168000 -0.204966 -29.691400 39.081100 -0.000007 -0.000012 0.017399 -0.071853 13.612400 40.985400 -0.000006 -0.000013 -14.071500 12.111700 -58.783800 11.754300 -0.000000 0.000003 0.001845 0.041200 -14.905500 -2.192510 6.469440 -0.000001 177.854000 7.961060 -169.942000 -39.081100 -0.002282 -0.040193 -0.033864 0.099789 20.437100 -40.985400 0.000008 0.000006 -5.005820 8.226300 -69.414300 -11.754300 -0.000006 -0.000006 -0.011342 -0.113407 -21.195400
